<?xml version="1.0" encoding="UTF-8" standalone="no"?>
<svg
   xmlns:osb="http://www.openswatchbook.org/uri/2009/osb"
   xmlns:dc="http://purl.org/dc/elements/1.1/"
   xmlns:cc="http://creativecommons.org/ns#"
   xmlns:rdf="http://www.w3.org/1999/02/22-rdf-syntax-ns#"
   xmlns:svg="http://www.w3.org/2000/svg"
   xmlns="http://www.w3.org/2000/svg"
   xmlns:xlink="http://www.w3.org/1999/xlink"
   xmlns:sodipodi="http://sodipodi.sourceforge.net/DTD/sodipodi-0.dtd"
   xmlns:inkscape="http://www.inkscape.org/namespaces/inkscape"
   sodipodi:docname="SpotiFRESH.svg"
   inkscape:version="1.0 (4035a4fb49, 2020-05-01)"
   id="svg888"
   version="1.1"
   viewBox="0 0 97.723924 61.677509"
   height="61.677509mm"
   width="97.723923mm">
  <defs
     id="defs882">
    <rect
       x="-318.63852"
       y="-427.53107"
       width="107.9181"
       height="38.246368"
       id="rect1808" />
    <linearGradient
       id="linearGradient1760"
       inkscape:collect="always">
      <stop
         id="stop1756"
         offset="0"
         style="stop-color:#47ddff;stop-opacity:1" />
      <stop
         id="stop1758"
         offset="1"
         style="stop-color:#00fd1e;stop-opacity:0.97991967" />
    </linearGradient>
    <linearGradient
       id="linearGradient1754"
       inkscape:collect="always">
      <stop
         id="stop1750"
         offset="0"
         style="stop-color:#47ddff;stop-opacity:1" />
      <stop
         id="stop1752"
         offset="1"
         style="stop-color:#00fd1e;stop-opacity:0.97991967" />
    </linearGradient>
    <linearGradient
       id="linearGradient1748"
       inkscape:collect="always">
      <stop
         id="stop1744"
         offset="0"
         style="stop-color:#47ddff;stop-opacity:1" />
      <stop
         id="stop1746"
         offset="1"
         style="stop-color:#00fd1e;stop-opacity:0.97991967" />
    </linearGradient>
    <linearGradient
       inkscape:collect="always"
       id="linearGradient1734">
      <stop
         style="stop-color:#47ddff;stop-opacity:1"
         offset="0"
         id="stop1730" />
      <stop
         style="stop-color:#00fd1e;stop-opacity:0.97991967"
         offset="1"
         id="stop1732" />
    </linearGradient>
    <marker
       inkscape:stockid="Arrow2Lstart"
       orient="auto"
       refY="0"
       refX="0"
       id="Arrow2Lstart"
       style="overflow:visible"
       inkscape:isstock="true">
      <path
         id="path1111"
         style="fill:#000000;fill-opacity:1;fill-rule:evenodd;stroke:#000000;stroke-width:0.625;stroke-linejoin:round;stroke-opacity:1"
         d="M 8.7185878,4.0337352 -2.2072895,0.01601326 8.7185884,-4.0017078 c -1.7454984,2.3720609 -1.7354408,5.6174519 -6e-7,8.035443 z"
         transform="matrix(1.1,0,0,1.1,1.1,0)" />
    </marker>
    <linearGradient
       id="linearGradient1089"
       osb:paint="solid">
      <stop
         style="stop-color:#000000;stop-opacity:1;"
         offset="0"
         id="stop1087" />
    </linearGradient>
    <rect
       id="rect1453"
       height="376.46429"
       width="818.69641"
       y="-393.8512"
       x="-446.0119" />
    <linearGradient
       gradientTransform="translate(-97.930192,1.2180372)"
       inkscape:collect="always"
       xlink:href="#linearGradient1734"
       id="linearGradient1736"
       x1="-354.81424"
       y1="-342.51205"
       x2="-354.93604"
       y2="-388.55386"
       gradientUnits="userSpaceOnUse" />
    <linearGradient
       gradientTransform="translate(-97.930192,1.2180372)"
       inkscape:collect="always"
       xlink:href="#linearGradient1760"
       id="linearGradient1738"
       x1="-354.81424"
       y1="-342.51205"
       x2="-354.93604"
       y2="-388.55386"
       gradientUnits="userSpaceOnUse" />
    <linearGradient
       gradientTransform="translate(-97.930192,1.2180372)"
       inkscape:collect="always"
       xlink:href="#linearGradient1754"
       id="linearGradient1740"
       x1="-354.81424"
       y1="-342.51205"
       x2="-354.93604"
       y2="-388.55386"
       gradientUnits="userSpaceOnUse" />
    <linearGradient
       gradientTransform="translate(-97.930192,1.2180372)"
       inkscape:collect="always"
       xlink:href="#linearGradient1748"
       id="linearGradient1742"
       x1="-354.81424"
       y1="-342.51205"
       x2="-354.93604"
       y2="-388.55386"
       gradientUnits="userSpaceOnUse" />
  </defs>
  <sodipodi:namedview
     inkscape:window-maximized="1"
     inkscape:window-y="-8"
     inkscape:window-x="1072"
     inkscape:window-height="2091"
     inkscape:window-width="3840"
     showborder="true"
     showgrid="false"
     inkscape:document-rotation="0"
     inkscape:current-layer="layer2"
     inkscape:document-units="mm"
     inkscape:cy="202.52566"
     inkscape:cx="162.23588"
     inkscape:zoom="4.3444212"
     inkscape:pageshadow="2"
     inkscape:pageopacity="0.0"
     borderopacity="1.0"
     bordercolor="#666666"
     id="base"
     fit-margin-top="0"
     fit-margin-left="0"
     fit-margin-right="0"
     fit-margin-bottom="0" />
  <metadata
     id="metadata885">
    <rdf:RDF>
      <cc:Work
         rdf:about="">
        <dc:format>image/svg+xml</dc:format>
        <dc:type
           rdf:resource="http://purl.org/dc/dcmitype/StillImage" />
        <dc:title />
      </cc:Work>
    </rdf:RDF>
  </metadata>
  <g
     inkscape:groupmode="layer"
     id="layer2"
     inkscape:label="Layer 1.5"
     style="display:inline"
     transform="translate(443.70617,390.46882)">
    <path
       style="fill:#000000;fill-opacity:1;stroke:#000000;stroke-width:0.264583px;stroke-linecap:butt;stroke-linejoin:miter;stroke-opacity:1"
       d="m -421.97862,-386.13196 c 0,0 -22.55573,1.85209 -21.56354,18.3224 0.99218,16.47031 13.89176,7.84974 14.61822,6.48229 1.12448,-2.11667 1.38907,-0.26458 1.38907,-0.26458 l 0.46302,1.25677 c 0,0 -5.35782,5.09323 -4.23333,9.12812 1.26913,4.55392 1.71978,2.51355 1.71978,2.51355 0,0 -2.27278,7.7586 4.82865,9.78958 6.46482,1.84891 -1.26549,10.30898 4.71441,9.97026 4.71289,-0.26695 -3.30677,-5.99318 3.62683,-11.18218 3.61056,-2.78922 1.37105,-2.60647 4.02803,-6.26256 2.74312,-3.48769 1.98438,-2.3151 1.98438,-2.3151 0,0 1.23177,1.66333 3.7205,2.90356 0.62218,0.31006 2.07965,3.44255 1.9214,4.12221 -0.31431,1.34986 1.03008,2.39998 1.63715,1.08896 2.1156,-4.56881 0.43908,-1.36115 3.54393,-4.34882 0.53395,-0.5138 0.89309,-0.98779 1.48014,-1.7154 4.69635,-5.82083 6.48229,-3.50572 6.48229,-3.50572 0,0 0.79375,6.08542 5.55625,6.35 1.19062,0.0661 2.39163,0.25539 3.61632,0.25631 5.456,0.004 -1.26799,7.72236 3.90314,7.58402 4.26938,-0.11421 -1.77097,-7.77832 3.72637,-8.58447 1.42098,-0.20838 2.69441,-1.33946 4.10001,-2.49701 5.62239,-4.63021 8.59895,-0.7276 8.59895,-0.7276 0,0 0.67679,1.31749 1.93297,2.59635 0.62808,0.63943 1.40101,1.2692 2.30661,1.7198 0.90559,0.45061 -1.55806,12.62428 5.08698,10.16979 4.68234,-1.72952 -1.88563,-8.61425 1.32287,-10.11234 0.91298,-0.42628 1.77117,-0.7252 2.41974,-1.24899 1.29715,-1.04756 1.94207,-2.51931 1.81365,-4.38138 -0.13229,-1.91823 -1.52136,-2.11667 -1.52136,-2.11667 0,0 -0.66146,-2.24896 0.92604,-7.01146 1.5875,-4.7625 2.64584,-12.17083 0.52917,-14.15521 -2.11667,-1.98437 -2.71198,-2.24895 -2.71198,-2.24895 0,0 4.10104,-4.36563 2.64584,-9.72344 -1.45521,-5.35781 -7.54063,-7.14375 -11.2448,-5.42396 -3.70416,1.71979 -8.53281,9.12812 -9.32656,12.30312 0,0 -7.14375,-5.4901 -14.88281,2.51354 0,0 -2.38125,-4.56406 -9.45886,-2.64583 0,0 1.98438,-8.06979 -2.3151,-8.00365 0,0 -1.05834,-0.19843 -3.30729,0.8599 -2.24896,1.05833 -13.75834,-0.99219 -13.75834,-0.99219 0,0 -6.68071,-0.79375 -10.31874,-0.46302 z"
       id="path1583"
       sodipodi:nodetypes="cssccscsscccssssscssssscsssssscsscssccccscc" />
  </g>
  <g
     style="display:inline;opacity:1"
     inkscape:label="Layer 2"
     id="layer3"
     inkscape:groupmode="layer"
     transform="translate(443.70617,390.46882)">
    <path
       sodipodi:nodetypes="scccsscssssscccscsscccccsccs"
       id="path1474"
       d="m -413.22786,-360.02986 c 1.22965,-3.59905 -2.49803,-5.49783 -2.49803,-5.49783 0,0 -0.49419,3.53772 -3.16979,3.91864 0,0 -6.65298,-12.81223 -5.13459,-19.28234 0,0 10.81762,0.94951 16.34732,3.12907 5.52971,2.17955 9.07243,2.00558 10.3589,-0.25666 1.28648,-2.26224 1.0454,-5.63185 1.0454,-5.63185 0,0 -2.13815,1.80406 -6.88218,1.26953 -4.74403,-0.53454 -16.03619,-2.40544 -20.78022,-1.73726 -4.74403,0.66818 -12.69529,2.67269 -16.03616,8.01809 -3.34086,5.34538 -1.9377,13.36347 2.07135,13.43028 4.00902,0.0668 6.88218,-3.00678 7.14944,-5.14493 0.26728,-2.13815 0.13364,-5.27857 -3.54132,-4.2763 0,0 2.33861,5.8131 -3.0736,6.94899 0,0 1.26521,-0.33717 1.2722,-1.27259 0,0 -3.33178,-1.22765 -2.61717,-7.4365 0.7146,-6.20885 10.27871,-7.40692 12.88452,-7.38744 0,0 -2.48117,1.1842 -2.89055,2.31707 -0.40939,1.13287 0.26615,9.08941 1.31422,11.90365 1.04807,2.81424 2.29109,6.36496 2.29109,6.36496 0,0 0.27076,-0.46571 3.54572,-0.57487 0,0 -11.37612,2.25363 -7.43312,11.10325 0,0 0.2419,-5.54419 4.99479,-6.71141 0,0 1.94253,8.30011 -4.21948,10.25862 0,0 6.00929,9.53326 10.69448,-0.4546 1.5153,-3.2303 1.66001,-7.53817 0.13924,-9.68775 0,0 -3.07501,0.17747 -3.67235,-0.36155 0,0 6.61024,0.65078 7.83989,-2.94827 z"
       style="fill:url(#linearGradient1736);fill-opacity:1;stroke:#000000;stroke-width:0.065;stroke-linecap:butt;stroke-linejoin:miter;stroke-miterlimit:4;stroke-dasharray:none;stroke-opacity:1" />
    <path
       id="path1486"
       d="m -411.85762,-371.68803 c 0,0 0.0277,-3.70406 -1.42799,-3.64879 0,0 -0.2626,-0.26656 0.92948,-0.45609 0,0 -1.84808,-0.543 -1.33277,1.31299 0.51531,1.85598 1.41808,4.97167 6.70861,5.14352 0,0 2.08162,-4.15174 5.05711,-3.9972 2.97549,0.15453 2.41766,3.98693 -0.0988,4.365 0,0 -0.12621,-0.81125 0.3473,-2.21335 0,0 -3.49016,6.75405 -2.60173,11.78791 0.88844,5.03387 2.66098,6.83311 4.38319,6.51524 0,0 -1.34711,3.23117 -4.58816,3.20694 -3.24106,-0.0242 -5.2668,-3.34675 -5.30772,-6.72059 -0.0409,-3.37384 0.93552,-10.1136 2.07085,-11.56037 0,0 -4.83643,1.02221 -7.4022,-0.8491 -2.56577,-1.87132 -3.73856,-4.2614 -3.12793,-6.30742 0.61062,-2.04601 2.86397,-2.62449 4.18437,-2.28388 1.32041,0.3406 2.44189,0.74587 2.76371,1.93894 0.32182,1.19306 0.25222,1.65558 0.0483,2.38168 -0.20387,0.7261 -0.60566,1.38457 -0.60566,1.38457 z"
       style="fill:url(#linearGradient1738);fill-opacity:1;stroke:#000000;stroke-width:0.065;stroke-linecap:butt;stroke-linejoin:miter;stroke-miterlimit:4;stroke-dasharray:none;stroke-opacity:1" />
    <path
       id="path1498"
       d="m -397.09033,-365.029 c 0,0 3.89163,1.48434 7.41603,-1.00293 3.52444,-2.48727 3.94751,-5.98993 2.77075,-7.85088 -1.17674,-1.86092 -5.20065,-3.34626 -8.72805,-0.46212 -3.52737,2.88412 -5.9659,10.53902 -3.95303,15.58129 2.01289,5.04227 4.59546,4.66471 5.12413,4.7348 0.52866,0.0701 2.91034,0.0217 4.84582,-2.27894 1.93548,-2.30071 0.94429,-2.44041 0.94429,-2.44041 0,0 -1.12937,0.65305 -2.71388,0.24432 -1.58448,-0.40876 -2.62401,-2.93013 -2.74984,-3.79098 -0.12586,-0.86087 -0.0513,-1.98482 -0.0513,-1.98482 0,0 -1.26019,0.4536 -2.90489,-0.74933 z"
       style="fill:url(#linearGradient1740);fill-opacity:1;stroke:#000000;stroke-width:0.065;stroke-linecap:butt;stroke-linejoin:miter;stroke-miterlimit:4;stroke-dasharray:none;stroke-opacity:1" />
    <path
       id="path1500"
       d="m -394.03682,-366.46143 c 0,0 0.0212,-2.84419 0.5593,-4.03082 0.53805,-1.18666 2.14034,-3.1591 3.52343,-2.355 1.38311,0.80412 0.50937,2.64972 0.30699,3.17741 -0.20238,0.52765 -2.47303,3.42116 -4.38972,3.20841 z"
       style="fill:#000000;fill-opacity:1;stroke:#000000;stroke-width:0.065;stroke-linecap:butt;stroke-linejoin:miter;stroke-miterlimit:4;stroke-dasharray:none;stroke-opacity:1" />
    <path
       style="fill:url(#linearGradient1742);fill-opacity:1;stroke:#000000;stroke-width:0.065;stroke-linecap:butt;stroke-linejoin:miter;stroke-miterlimit:4;stroke-dasharray:none;stroke-opacity:1"
       d="m -380.83592,-356.16789 c 0,0 -0.46302,-3.10886 -2.97656,-3.30729 -2.51354,-0.19844 -3.96875,1.85208 -4.43177,3.30729 -0.46302,1.45521 -1.52135,6.87916 1.5875,8.73125 3.10886,1.85208 7.07761,2.77812 12.03854,-2.97657 4.96094,-5.75468 0,-13.69218 0,-13.69218 l -2.3151,-4.23334 c 0,0 -1.19063,-4.36562 1.12448,-5.75468 2.3151,-1.38907 3.9026,-0.33073 3.96875,0.85989 0.0661,1.19063 -0.8599,3.43959 -2.11667,3.90261 0,0 0.88929,-0.48296 1.40378,-1.81597 0.51449,-1.333 -0.67618,-0.49914 -0.67618,-0.49914 0,0 -3.04271,1.71979 -1.85208,3.24114 1.19062,1.52136 3.04271,-0.26458 3.04271,-0.26458 0,0 1.12448,-0.66146 1.65364,-2.18281 l 1.91823,-0.52917 c 0,0 -0.79375,6.94531 -0.92604,10.05417 -0.13229,3.10885 0.0661,7.80521 2.3151,7.9375 2.24896,0.13229 3.77032,-0.8599 3.77032,-0.8599 0,0 -0.13229,-5.22552 1.12448,-8.06979 1.25677,-2.84427 3.57187,-8.06979 5.35781,-7.01146 1.78594,1.05834 -0.0661,4.7625 -0.0661,4.7625 0,0 -3.77031,9.39271 -3.70416,10.84792 0.0661,1.45521 -0.59532,5.82083 2.38125,6.48229 2.97656,0.66146 4.96093,-0.46302 6.2177,-1.98437 0,0 -2.3813,-0.66146 -1.5214,-5.29167 0.8599,-4.63021 2.3151,-9.65729 2.51354,-10.3849 0.19844,-0.7276 1.05834,-6.28385 -2.18281,-7.73906 -3.24115,-1.45521 -6.35,0.66146 -7.73906,3.10885 -1.38907,2.4474 -2.11667,3.63803 -2.97657,6.94532 0,0 0.52917,-8.13594 0.92605,-10.12032 0,0 -1.78594,0.79375 -3.3073,0.72761 0,0 8.86355,-2.64583 11.90625,-5.35781 3.04271,-2.71198 2.77813,-6.08542 1.19063,-8.0698 -1.5875,-1.98437 -4.23333,-3.9026 -6.48229,-1.91822 -2.24896,1.98437 -7.9375,9.59114 -8.13594,12.76614 0,0 0,0.52917 4.29948,-0.92604 0,0 -2.05052,1.71979 -6.54844,2.38125 0,0 0,-5.88698 -8.33437,-3.175 -8.33438,2.71198 -3.83646,11.64167 -3.50573,12.36927 0.33073,0.7276 2.64583,4.63021 2.64583,4.63021 0,0 1.91823,3.70417 0.39688,6.94531 -1.52136,3.24115 -3.3073,4.56406 -4.63021,3.83646 -1.32292,-0.7276 -1.12448,-4.0349 -0.33073,-5.6224 0.79375,-1.5875 2.97656,-2.05051 2.97656,-2.05051 z"
       id="path1578" />
    <path
       style="fill:#000000;fill-opacity:1;stroke:#000000;stroke-width:0.065;stroke-linecap:butt;stroke-linejoin:miter;stroke-miterlimit:4;stroke-dasharray:none;stroke-opacity:1"
       d="m -361.98435,-376.40852 c 0,0 3.63802,-7.14375 5.15937,-7.87135 1.52136,-0.72761 3.43958,0.46302 2.51354,1.91823 -0.92604,1.45521 -4.36562,4.63021 -7.67291,5.95312 z"
       id="path1580" />
  </g>
</svg>
